<?xml version="1.0" encoding="UTF-8" standalone="no"?>
<svg
   xmlns:dc="http://purl.org/dc/elements/1.1/"
   xmlns:cc="http://creativecommons.org/ns#"
   xmlns:rdf="http://www.w3.org/1999/02/22-rdf-syntax-ns#"
   xmlns:svg="http://www.w3.org/2000/svg"
   xmlns="http://www.w3.org/2000/svg"
   xmlns:sodipodi="http://sodipodi.sourceforge.net/DTD/sodipodi-0.dtd"
   xmlns:inkscape="http://www.inkscape.org/namespaces/inkscape"
   id="Ebene_1"
   data-name="Ebene 1"
   viewBox="0 0 246.61 136.06"
   version="1.1"
   sodipodi:docname="fzj.svg"
   inkscape:version="0.92.3 (2405546, 2018-03-11)">
  <metadata
     id="metadata13">
    <rdf:RDF>
      <cc:Work
         rdf:about="">
        <dc:format>image/svg+xml</dc:format>
        <dc:type
           rdf:resource="http://purl.org/dc/dcmitype/StillImage" />
      </cc:Work>
    </rdf:RDF>
  </metadata>
  <defs
     id="defs11" />
  <sodipodi:namedview
     pagecolor="#ffffff"
     bordercolor="#666666"
     borderopacity="1"
     objecttolerance="10"
     gridtolerance="10"
     guidetolerance="10"
     inkscape:pageopacity="0"
     inkscape:pageshadow="2"
     inkscape:window-width="640"
     inkscape:window-height="480"
     id="namedview9"
     showgrid="false"
     inkscape:zoom="1.6301042"
     inkscape:cx="123.305"
     inkscape:cy="68.029999"
     inkscape:window-x="237"
     inkscape:window-y="936"
     inkscape:window-maximized="0"
     inkscape:current-layer="Ebene_1" />
  <title
     id="title2">Logo_FZ_Juellich_RGB_schutzzone_weiss</title>
  <path
     d="m 147.91043,86.617146 h -1.0001 a 0.35941362,0.3639299 0 0 0 -0.35942,0.379753 v 4.446274 c 0,1.313311 -0.65633,2.025349 -1.65642,2.025349 -1.00012,0 -1.56268,-0.712038 -1.56268,-2.025349 v -4.446274 a 0.39066699,0.39557599 0 0 0 -0.39067,-0.379753 h -0.98447 a 0.37504031,0.37975295 0 0 0 -0.37504,0.379753 v 4.240575 c 0,2.29434 0.92197,3.718414 2.82842,3.718414 a 2.3596286,2.3892788 0 0 0 2.15648,-1.044321 v 0.506337 a 0.35941362,0.3639299 0 0 0 0.35942,0.379753 h 1.00011 a 0.37504031,0.37975295 0 0 0 0.37504,-0.379753 v -7.421005 a 0.37504031,0.37975295 0 0 0 -0.39067,-0.379753 z m -12.50134,-0.174053 a 2.4690154,2.5000402 0 0 0 -2.23462,1.107612 v -3.813352 a 0.39066699,0.39557599 0 0 0 -0.39067,-0.395576 h -0.98447 a 0.37504031,0.37975295 0 0 0 -0.37505,0.395576 v 10.680551 a 0.35941362,0.3639299 0 0 0 0.37505,0.379753 h 1.04698 a 0.37504031,0.37975295 0 0 0 0.39066,-0.379753 v -4.43045 c 0,-1.313312 0.7032,-2.041173 1.71895,-2.041173 1.01573,0 1.70329,0.727861 1.70329,2.041173 v 4.43045 a 0.37504031,0.37975295 0 0 0 0.37505,0.379753 h 0.98448 a 0.37504031,0.37975295 0 0 0 0.39067,-0.379753 V 90.17733 c -0.0157,-2.231049 -0.96886,-3.734237 -2.95344,-3.734237 z m 2.67215,-45.633646 h -3.89103 a 1.4532812,1.4715427 0 0 0 -1.45328,1.471544 V 61.07876 c 0,4.889321 -2.34402,6.977961 -5.67249,6.977961 -3.32849,0 -5.57873,-2.08864 -5.57873,-6.977961 V 42.280991 a 1.4532812,1.4715427 0 0 0 -1.45327,-1.471544 h -3.89105 a 1.4532812,1.4715427 0 0 0 -1.45327,1.471544 V 61.07876 c 0,8.307096 4.96929,13.433761 12.37632,13.433761 7.40704,0 12.50134,-5.126665 12.50134,-13.433761 V 42.280991 a 1.4532812,1.4715427 0 0 0 -1.43765,-1.471544 z m -27.28416,45.886815 h -0.20315 a 2.4533887,2.4842172 0 0 0 -2.15648,1.218374 v -0.838622 a 0.35941362,0.3639299 0 0 0 -0.35942,-0.379752 h -0.90634 a 0.37504031,0.37975295 0 0 0 -0.37504,0.379752 v 7.421006 a 0.35941362,0.3639299 0 0 0 0.37504,0.379753 h 0.96885 a 0.39066699,0.39557599 0 0 0 0.39066,-0.379753 v -3.781707 c 0,-1.582304 0.68757,-2.357632 2.0471,-2.357632 h 0.21878 a 0.37504031,0.37975295 0 0 0 0.39067,-0.36393 v -0.996852 a 0.39066699,0.39557599 0 0 0 -0.34379,-0.379753 z m 14.70469,1.329134 a 1.6720547,1.6930652 0 0 1 1.68769,1.455721 0.26565356,0.26899167 0 0 0 0.26566,0.237345 h 1.12511 a 0.23440018,0.23734558 0 0 0 0.2344,-0.268991 0.50005374,0.50633726 0 0 0 0,-0.2057 3.2972294,3.3386613 0 0 0 -3.2816,-2.721562 3.4222428,3.4652457 0 0 0 -3.43787,3.734237 v 1.060144 a 3.4066162,3.4494226 0 0 0 3.43787,3.718413 3.2347227,3.2753691 0 0 0 3.2816,-2.626624 2.0002149,2.0253491 0 0 0 0,-0.268992 0.25002687,0.25316863 0 0 0 -0.26566,-0.253169 h -1.12512 a 0.23440018,0.23734558 0 0 0 -0.25002,0.221522 1.5626679,1.5823039 0 0 1 -1.67206,1.439897 c -1.00009,0 -1.73455,-0.712037 -1.73455,-2.025348 v -1.455721 c 0.0469,-1.392426 0.78133,-2.120287 1.78142,-2.120287 z m -10.36048,0.822799 c 0,-0.680391 0.60944,-0.901914 1.31264,-0.901914 a 1.3751479,1.3924275 0 0 1 1.56266,1.012676 c 0,0.174052 0.10943,0.253168 0.29691,0.253168 h 1.01574 a 0.26565356,0.26899167 0 0 0 0.26565,-0.284815 0.6875739,0.69621373 0 0 0 0,-0.2057 2.828429,2.86397 0 0 0 -3.01594,-2.199401 c -1.56267,0 -3.12533,0.712036 -3.12533,2.405101 0,3.322838 4.59423,1.946234 4.59423,3.655122 0,0.759506 -0.56255,1.044321 -1.56267,1.044321 a 1.5626679,1.5823039 0 0 1 -1.65643,-1.091791 c 0,-0.15823 -0.10942,-0.268992 -0.28127,-0.268992 h -1.00011 a 0.29690691,0.30063774 0 0 0 -0.29691,0.268992 0.48442707,0.49051422 0 0 0 0,0.221522 2.9534424,2.9905544 0 0 0 3.12534,2.278519 c 1.67205,0 3.12533,-0.632921 3.12533,-2.484218 0.26566,-3.354483 -4.31297,-1.993703 -4.31297,-3.781705 z m 7.28203,-50.855249 a 3.3753627,3.4177766 0 1 0 -3.37536,-3.417777 3.1253358,3.164608 0 0 0 3.42224,3.338662 z m 9.84481,0 a 3.3753627,3.4177766 0 1 0 -3.37537,-3.417777 3.1253358,3.164608 0 0 0 3.42225,3.338662 z m -24.81515,4.367159 a 1.4532812,1.4715427 0 0 0 -1.45329,-1.471542 h -3.89105 a 1.4532812,1.4715427 0 0 0 -1.45328,1.471542 v 21.376927 a 3.9691766,4.019052 0 1 1 -7.922716,0 V 63.30981 a 1.4532812,1.4715427 0 0 0 -1.453287,-1.471543 h -3.750404 a 1.4532812,1.4715427 0 0 0 -1.453275,1.471543 v 0.332283 a 10.68865,10.82296 0 1 0 21.377302,0 z M 25.991091,58.721128 37.52358,28.388361 A 35.472563,35.918299 0 0 0 2.1916584,47.69247 a 0.78133396,0.79115196 0 0 1 0,0.205699 L 1.6916037,49.21148 c -3.5003753,9.16154 1.8439488,15.949625 7.0320049,17.974975 A 13.360811,13.528699 0 0 0 25.991091,58.721128 Z M 100.6241,86.443093 a 3.4378694,3.4810687 0 0 0 -3.469109,3.734237 v 1.060144 a 3.4847497,3.5285378 0 1 0 6.969499,0 V 90.17733 a 3.4378694,3.4810687 0 0 0 -3.50039,-3.734237 z m 1.7502,5.00008 c 0,1.313311 -0.71882,2.025349 -1.7502,2.025349 -1.031361,0 -1.718933,-0.712038 -1.718933,-2.025349 v -1.455719 c 0,-1.313312 0.734459,-2.041173 1.718933,-2.041173 0.98449,0 1.7502,0.727861 1.7502,2.041173 z M 46.899588,66.585178 C 40.023848,84.781673 23.459569,91.601404 8.2860629,88.974779 A 35.425682,35.870831 0 1 0 57.932024,37.818892 Z m 48.442706,16.756599 h -6.250671 a 0.37504031,0.37975295 0 0 0 -0.359408,0.395576 v 10.680551 a 0.35941362,0.3639299 0 0 0 0.359408,0.379753 h 0.984484 a 0.37504031,0.37975295 0 0 0 0.390668,-0.379753 v -4.193105 h 3.906661 a 0.37504031,0.37975295 0 0 0 0.375038,-0.379751 v -0.870269 a 0.39066699,0.39557599 0 0 0 -0.375038,-0.395577 h -3.906661 v -3.591829 h 4.875519 a 0.39066699,0.39557599 0 0 0 0.390667,-0.379753 v -0.870267 a 0.39066699,0.39557599 0 0 0 -0.390667,-0.395576 z m 133.529966,3.275369 h -0.98449 a 0.37504031,0.37975295 0 0 0 -0.37504,0.379753 v 4.446274 c 0,1.313311 -0.65632,2.025349 -1.65643,2.025349 -1.0001,0 -1.56266,-0.712038 -1.56266,-2.025349 v -4.446274 a 0.39066699,0.39557599 0 0 0 -0.39067,-0.379753 h -0.98449 a 0.37504031,0.37975295 0 0 0 -0.37504,0.379753 v 4.240575 c 0,2.29434 0.92199,3.718414 2.82844,3.718414 a 2.3596286,2.3892788 0 0 0 2.15648,-1.044321 v 0.506337 a 0.35941362,0.3639299 0 0 0 0.37504,0.379753 h 0.98449 a 0.37504031,0.37975295 0 0 0 0.37504,-0.379753 v -7.421005 a 0.37504031,0.37975295 0 0 0 -0.43756,-0.379753 z M 212.3236,62.170551 h -4.82864 c -0.9376,0 -1.12511,0.759506 -1.21887,1.471542 a 4.8911507,4.9526112 0 0 1 -5.34433,4.414628 c -3.42224,0 -6.25068,-2.563332 -6.25068,-7.452652 v -6.329215 c 0,-4.889319 2.76593,-7.547591 6.25068,-7.547591 a 5.1099241,5.1741338 0 0 1 5.35995,4.620328 c 0.14064,0.949384 0.65632,1.281667 1.172,1.281667 h 4.78177 a 0.9844808,0.99685144 0 0 0 1.03135,-1.186728 11.798143,11.946395 0 0 0 -12.34507,-11.171066 c -7.50081,0 -12.98577,5.601356 -12.98577,13.908452 v 6.329215 c 0,8.307097 5.48496,13.908452 12.98577,13.908452 a 12.04817,12.199563 0 0 0 12.50134,-11.202711 1.0626142,1.0759666 0 0 0 -1.1095,-1.044321 z m 7.18827,24.446595 h -0.21876 a 2.4065087,2.4367481 0 0 0 -2.14086,1.218374 v -0.838621 a 0.37504031,0.37975295 0 0 0 -0.37505,-0.379753 h -0.90635 a 0.37504031,0.37975295 0 0 0 -0.37504,0.379753 v 7.421005 a 0.35941362,0.3639299 0 0 0 0.37504,0.379753 h 0.96886 a 0.39066699,0.39557599 0 0 0 0.39067,-0.379753 v -3.702591 c 0,-1.582304 0.68758,-2.357632 2.0471,-2.357632 h 0.23439 a 0.35941362,0.3639299 0 0 0 0.37504,-0.36393 v -0.996852 a 0.37504031,0.37975295 0 0 0 -0.37504,-0.379753 z m -7.32889,0 h -1.64082 v -1.740534 a 0.37504031,0.37975295 0 0 0 -0.37504,-0.395576 h -0.95321 a 0.37504031,0.37975295 0 0 0 -0.35943,0.395576 v 0.712037 c 0,0.838621 -0.32816,1.028497 -1.12513,1.028497 a 0.37504031,0.37975295 0 0 0 -0.37504,0.379753 v 0.743683 a 0.37504031,0.37975295 0 0 0 0.37504,0.379753 h 1.1095 v 4.050698 c 0,1.693066 0.56257,2.626624 2.50028,2.626624 h 0.84385 a 0.37504031,0.37975295 0 0 0 0.37503,-0.379753 v -0.838619 a 0.35941362,0.3639299 0 0 0 -0.37503,-0.363931 h -0.56258 c -0.96886,0 -1.07824,-0.348108 -1.07824,-1.281667 v -3.765883 h 1.64082 a 0.37504031,0.37975295 0 0 0 0.35939,-0.427222 V 86.94943 a 0.37504031,0.37975295 0 0 0 -0.35939,-0.332284 z m 29.09686,-0.174053 a 2.828429,2.86397 0 0 0 -2.5159,1.329136 2.5627755,2.5949784 0 0 0 -2.37525,-1.329136 2.2971219,2.3259868 0 0 0 -2.09398,1.107612 v -0.553806 a 0.39066699,0.39557599 0 0 0 -0.39067,-0.379753 h -1.04698 a 0.37504031,0.37975295 0 0 0 -0.37505,0.379753 v 7.421005 a 0.35941362,0.3639299 0 0 0 0.37505,0.379753 h 0.98448 a 0.39066699,0.39557599 0 0 0 0.39066,-0.379753 v -4.177282 c 0,-1.313312 0.25003,-2.294341 1.56267,-2.294341 1.31265,0 1.56268,0.806976 1.56268,2.294341 v 4.177282 a 0.37504031,0.37975295 0 0 0 0.37504,0.379753 h 1.0001 a 0.37504031,0.37975295 0 0 0 0.37504,-0.379753 v -4.177282 c 0,-1.40825 0.32816,-2.294341 1.6408,-2.294341 1.31264,0 1.56267,0.886091 1.56267,2.294341 v 4.177282 a 0.35941362,0.3639299 0 0 0 0.37504,0.379753 h 1.10949 a 0.39066699,0.39557599 0 0 0 0.39067,-0.379753 v -4.003228 c -0.0624,-2.357633 -0.53131,-3.971583 -2.90656,-3.971583 z m -39.06669,0 a 2.4533887,2.4842172 0 0 0 -2.21899,1.123435 v -0.569629 a 0.37504031,0.37975295 0 0 0 -0.37504,-0.379753 H 198.619 a 0.35941362,0.3639299 0 0 0 -0.35941,0.379753 v 7.421005 a 0.35941362,0.3639299 0 0 0 0.35941,0.379753 h 1.00012 a 0.37504031,0.37975295 0 0 0 0.37504,-0.379753 v -4.43045 c 0,-1.313312 0.71882,-2.041173 1.71893,-2.041173 1.00011,0 1.71894,0.727861 1.71894,2.041173 v 4.43045 a 0.35941362,0.3639299 0 0 0 0.37503,0.379753 h 0.92198 a 0.37504031,0.37975295 0 0 0 0.37503,-0.379753 V 90.17733 c 0.0313,-2.231049 -0.93759,-3.734237 -2.92219,-3.734237 z M 242.8425,40.809447 h -3.89103 a 1.4532812,1.4715427 0 0 0 -1.45328,1.471544 V 54.148268 H 226.29386 V 42.280991 a 1.4532812,1.4715427 0 0 0 -1.45328,-1.471544 h -3.89105 a 1.4532812,1.4715427 0 0 0 -1.45329,1.471544 v 30.285295 a 1.4532812,1.4715427 0 0 0 1.45329,1.471545 h 3.89105 a 1.4532812,1.4715427 0 0 0 1.45328,-1.471545 V 60.604069 h 11.11057 v 11.962217 a 1.4532812,1.4715427 0 0 0 1.45328,1.471545 h 3.89103 a 1.4532812,1.4715427 0 0 0 1.45329,-1.471545 V 42.280991 a 1.4532812,1.4715427 0 0 0 -1.45329,-1.471544 z m -87.22811,45.633646 a 2.4533887,2.4842172 0 0 0 -2.21899,1.123435 v -0.569629 a 0.37504031,0.37975295 0 0 0 -0.37504,-0.379753 h -0.98449 a 0.37504031,0.37975295 0 0 0 -0.37504,0.379753 v 7.421005 a 0.35941362,0.3639299 0 0 0 0.37504,0.379753 h 0.98449 a 0.37504031,0.37975295 0 0 0 0.37504,-0.379753 v -4.43045 c 0,-1.313312 0.71883,-2.041173 1.71893,-2.041173 1.00011,0 1.71893,0.727861 1.71893,2.041173 v 4.43045 a 0.35941362,0.3639299 0 0 0 0.37504,0.379753 h 0.98449 a 0.39066699,0.39557599 0 0 0 0.39067,-0.379753 V 90.17733 c 0,-2.231049 -0.96886,-3.734237 -2.96907,-3.734237 z m 10.40737,6.772261 h -2.09399 c -0.54692,0 -0.78133,-0.174055 -0.78133,-0.585453 a 0.56256045,0.56962942 0 0 1 0.64071,-0.585453 h 1.56265 a 2.7034155,2.7373858 0 0 0 3.12534,-2.784854 v -3.354485 a 0.37504031,0.37975295 0 0 0 -0.37504,-0.379752 h -0.8751 a 0.37504031,0.37975295 0 0 0 -0.37503,0.379752 v 1.060144 a 2.9221891,2.9589084 0 0 0 -1.65642,-0.52216 h -0.40631 a 2.7659222,2.800678 0 0 0 -3.12534,2.816501 2.1877351,2.2152254 0 0 0 1.03137,1.993703 1.2970145,1.3133123 0 0 0 -1.09387,1.344959 1.2813877,1.2974892 0 0 0 0.73446,1.250019 1.9689616,1.9937031 0 0 0 -1.09387,1.882942 2.5158954,2.5475093 0 0 0 2.85969,2.50004 h 1.8752 a 2.5002687,2.5316863 0 1 0 0,-5.015903 z m -1.172,-5.395657 h 0.43754 a 1.4220278,1.4398965 0 1 1 0,2.86397 h -0.43754 a 1.3595211,1.3766045 0 0 1 -1.56268,-1.424073 1.3751479,1.3924275 0 0 1 1.56268,-1.439897 z m 0.84383,9.050779 h -1.28139 c -1.09387,0 -1.48453,-0.443045 -1.48453,-1.139259 0,-0.696214 0.39066,-1.186728 1.48453,-1.186728 h 1.25015 c 1.10948,0 1.56265,0.458868 1.56265,1.186728 0,0.72786 -0.42191,1.139259 -1.56265,1.139259 z m 7.18827,-8.101396 c 0,-0.680392 0.60944,-0.901913 1.31264,-0.901913 a 1.3907745,1.4082504 0 0 1 1.56267,1.012674 c 0,0.174054 0.10943,0.253168 0.28129,0.253168 h 1.03136 a 0.26565356,0.26899167 0 0 0 0.26565,-0.284814 0.6875739,0.69621373 0 0 0 0,-0.2057 2.828429,2.86397 0 0 0 -3.01595,-2.199402 c -1.56266,0 -3.12533,0.712036 -3.12533,2.405102 0,3.322838 4.59424,1.946233 4.59424,3.655122 0,0.759505 -0.56255,1.04432 -1.48454,1.04432 a 1.5626679,1.5823039 0 0 1 -1.65643,-1.091789 c 0,-0.15823 -0.10942,-0.268993 -0.28127,-0.268993 h -1.01574 a 0.28128023,0.2848147 0 0 0 -0.28128,0.268993 0.48442707,0.49051422 0 0 0 0,0.221521 2.9378157,2.9747315 0 0 0 3.20347,2.278519 c 1.67205,0 3.12533,-0.632922 3.12533,-2.484218 0.0624,-3.275368 -4.51611,-1.914588 -4.51611,-3.70259 z M 168.02197,72.566286 V 69.053572 A 1.4532812,1.4715427 0 0 0 166.56869,67.58203 H 154.06734 V 42.265168 a 1.4532812,1.4715427 0 0 0 -1.45329,-1.471543 h -3.89103 a 1.4532812,1.4715427 0 0 0 -1.45329,1.471543 v 30.301118 a 1.4532812,1.4715427 0 0 0 1.45329,1.471545 h 17.81441 a 1.4532812,1.4715427 0 0 0 1.48454,-1.471545 z m 12.892,0 V 42.280991 a 1.4532812,1.4715427 0 0 0 -1.45327,-1.471544 h -3.89104 a 1.4532812,1.4715427 0 0 0 -1.45328,1.471544 v 30.285295 a 1.4532812,1.4715427 0 0 0 1.45328,1.471545 h 3.89104 a 1.4532812,1.4715427 0 0 0 1.45327,-1.471545 z m 4.68802,14.05086 h -5.32871 a 0.39066699,0.39557599 0 0 0 -0.39067,0.379753 v 0.743683 a 0.37504031,0.37975295 0 0 0 0.39067,0.379753 h 3.67228 l -3.76603,4.873496 a 0.87509405,0.8860902 0 0 0 -0.29692,0.72786 v 0.664568 a 0.37504031,0.37975295 0 0 0 0.39067,0.379753 h 5.32871 a 0.35941362,0.3639299 0 0 0 0.37503,-0.379753 V 93.642575 A 0.37504031,0.37975295 0 0 0 185.60199,93.247 h -3.73478 l 3.87541,-4.857673 a 0.82821401,0.83862108 0 0 0 0.2344,-0.648745 V 86.94943 a 0.37504031,0.37975295 0 0 0 -0.31253,-0.332284 z m 6.25067,-0.174053 a 3.4534961,3.4968916 0 0 0 -3.50039,3.734237 v 1.060144 a 3.4534961,3.4968916 0 0 0 3.51602,3.718414 3.312856,3.3544843 0 0 0 3.12533,-2.167756 1.0001075,1.0126745 0 0 0 0,-0.268991 0.26565356,0.26899167 0 0 0 -0.26566,-0.284815 h -1.04699 a 0.46880038,0.47469118 0 0 0 -0.37503,0.237344 1.5626679,1.5823039 0 0 1 -1.56267,0.996852 1.7814414,1.8038265 0 0 1 -1.76583,-1.946233 v -0.221523 h 4.7974 a 0.39066699,0.39557599 0 0 0 0.57819,-0.395576 v -0.759506 a 3.4378694,3.4810687 0 0 0 -3.42224,-3.702591 z m 1.75018,3.607654 h -3.50038 v -0.189878 a 1.75019,1.7721823 0 1 1 3.50038,0 z"
     style="fill:#023d6b;stroke-width:1.57245529"
     id="path6"
     inkscape:connector-curvature="0" />
</svg>
