<?xml version="1.0" encoding="UTF-8" standalone="no"?>
<svg
   xmlns:dc="http://purl.org/dc/elements/1.1/"
   xmlns:cc="http://creativecommons.org/ns#"
   xmlns:rdf="http://www.w3.org/1999/02/22-rdf-syntax-ns#"
   xmlns:svg="http://www.w3.org/2000/svg"
   xmlns="http://www.w3.org/2000/svg"
   xmlns:sodipodi="http://sodipodi.sourceforge.net/DTD/sodipodi-0.dtd"
   xmlns:inkscape="http://www.inkscape.org/namespaces/inkscape"
   version="1.1"
   id="svg449"
   xml:space="preserve"
   width="146.33519"
   height="94.324532"
   viewBox="0 0 146.33519 94.324532"
   sodipodi:docname="GFZ_long_en.svg"
   inkscape:version="1.0.2 (e86c870879, 2021-01-15)"><metadata
     id="metadata455"><rdf:RDF><cc:Work
         rdf:about=""><dc:format>image/svg+xml</dc:format><dc:type
           rdf:resource="http://purl.org/dc/dcmitype/StillImage" /><dc:title /></cc:Work></rdf:RDF></metadata><defs
     id="defs453" /><sodipodi:namedview
     pagecolor="#ffffff"
     bordercolor="#666666"
     borderopacity="1"
     objecttolerance="10"
     gridtolerance="10"
     guidetolerance="10"
     inkscape:pageopacity="0"
     inkscape:pageshadow="2"
     inkscape:window-width="1716"
     inkscape:window-height="1395"
     id="namedview451"
     showgrid="false"
     inkscape:pagecheckerboard="true"
     inkscape:zoom="3.3447686"
     inkscape:cx="28.016139"
     inkscape:cy="51.640989"
     inkscape:window-x="3640"
     inkscape:window-y="22"
     inkscape:window-maximized="0"
     inkscape:current-layer="g459"
     inkscape:document-rotation="0" /><g
     id="g457"
     inkscape:groupmode="layer"
     inkscape:label="ink_ext_XXXXXX"
     transform="matrix(1.3333333,0,0,-1.3333333,-15.111466,109.25573)"><g
       id="g459"
       transform="scale(0.1)"><path
         d="m 387.758,819.418 c -34.188,0 -61.117,-4.809 -87.539,-15.719 -50.239,-20.847 -75.098,-54.203 -75.098,-101.359 0,-33.352 11.91,-57.09 38.332,-77.942 28.996,-23.089 68.887,-33.996 122.746,-33.996 42.485,0 82.883,6.414 119.66,19.887 V 716.777 H 366.52 l 9.332,-36.566 h 54.902 v -50.68 c -11.91,-3.843 -24.863,-5.453 -40.926,-5.453 -23.308,0 -42.988,4.492 -56.461,12.508 -18.129,11.23 -26.926,31.766 -26.926,63.512 0,33.359 6.211,57.414 30.563,71.851 12.426,7.383 30.555,11.219 51.797,11.219 27.449,0 51.789,-5.449 75.101,-17.316 l 38.328,27.91 c -31.601,16.996 -70.96,25.656 -114.472,25.656"
         style="fill:#231f20;fill-opacity:1;fill-rule:evenodd;stroke:none"
         id="path463" /><path
         d="m 601.469,592.969 h 72.519 v 98.469 h 91.68 v 36.57 h -91.68 v 51 h 114.457 l 8.301,36.242 H 601.469 V 592.969"
         style="fill:#231f20;fill-opacity:1;fill-rule:evenodd;stroke:none"
         id="path465" /><path
         d="m 875.918,778.684 h 110.84 c 21.762,0 36.782,1.597 36.782,1.597 0,0 -12.43,-9.937 -22.28,-20.199 L 868.668,624.402 v -31.429 h 224.802 l 18.64,36.558 H 990.906 c -14.511,0 -35.738,-1.277 -35.738,-1.277 0,0 10.867,7.699 18.641,15.707 l 133.641,139.531 v 32.403 H 891.977 l -16.059,-37.211"
         style="fill:#231f20;fill-opacity:1;fill-rule:evenodd;stroke:none"
         id="path467" /><path
         d="m 1210.85,353.09 c -335.467,81.93 -764.127,82.844 -1097.514,0 279.941,135.832 813.496,134.879 1097.514,0"
         style="fill:#135ca1;fill-opacity:1;fill-rule:evenodd;stroke:none"
         id="path469" /><path
         d="m 253.613,181.25 h 16.7 c 5.628,0 10.125,-1.16 13.128,-3.367 3,-2.09 4.497,-5 4.497,-8.723 0,-3.828 -0.926,-6.39 -3.188,-8.597 -3.559,-3.372 -6.746,-4.18 -17.441,-4.18 h -13.696 z m -26.273,13.129 v -81 h 26.273 v 29.75 h 14.45 c 14.437,0 20.066,0.934 26.078,2.672 14.257,4.179 22.507,13.019 22.507,23.711 0,9.297 -6.566,16.738 -18.757,20.918 -7.321,2.558 -14.067,3.949 -36.211,3.949 h -34.34"
         style="fill:#231f20;fill-opacity:1;fill-rule:evenodd;stroke:none"
         id="path471" /><path
         d="m 417.809,145.227 c 0,-16.5 -7.129,-21.852 -20.258,-21.852 -14.074,0 -20.832,4.648 -20.832,20.34 0,14.18 6.008,21.73 20.832,21.73 15.562,0 20.258,-7.55 20.258,-20.218 m 28.711,0 c 0,20.8 -20.082,31.257 -48.606,31.257 -30.387,0 -49.148,-11.851 -49.148,-32.308 0,-18.59 18.011,-31.719 50.089,-31.719 31.711,0 47.665,13.238 47.665,32.77"
         style="fill:#231f20;fill-opacity:1;fill-rule:evenodd;stroke:none"
         id="path473" /><path
         d="m 566.129,175.676 h -81.797 v -12.321 h 26.078 v -49.98 h 25.699 v 49.98 h 25.141 c 0,0 5.066,12.321 4.879,12.321"
         style="fill:#231f20;fill-opacity:1;fill-rule:evenodd;stroke:none"
         id="path475" /><path
         d="m 685.855,133.832 c 0,9.531 -10.878,15.57 -28.519,18.133 l -13.508,1.98 c -8.441,1.157 -10.504,2.547 -10.504,5.578 0,3.481 5.621,5.692 13.512,5.692 7.883,0 16.687,-1.516 26.262,-4.652 l 11.82,10.808 c -9.383,3.844 -24.953,6.395 -38.652,6.395 -24.2,0 -40.899,-8.364 -40.899,-19.875 0,-3.489 1.309,-6.625 4.129,-9.649 3.75,-4.179 11.07,-7.09 21.949,-8.828 l 12.758,-1.859 c 9.192,-1.164 13.133,-3.602 13.133,-6.973 0,-4.297 -5.996,-6.156 -17.82,-6.156 -11.071,0 -19.52,1.859 -30.02,4.637 l -8.262,-11.852 c 12.204,-3.598 24.774,-5.227 36.965,-5.227 28.703,0 47.656,8.598 47.656,21.848"
         style="fill:#231f20;fill-opacity:1;fill-rule:evenodd;stroke:none"
         id="path477" /><path
         d="m 790.941,142.668 c 0,-13.484 -7.878,-17.199 -16.886,-17.199 h -12.012 v 38.578 h 9.195 c 15.575,0 19.703,-7.793 19.703,-21.379 m 27.95,1.277 c 0,18.828 -15.008,29.399 -39.578,31.145 -4.325,0.344 -14.079,0.344 -20.641,0.344 h -22.141 v -62.059 h 26.082 c 7.692,0 12.758,0 17.071,0.352 22.507,1.742 39.207,12.089 39.207,30.218"
         style="fill:#231f20;fill-opacity:1;fill-rule:evenodd;stroke:none"
         id="path479" /><path
         d="m 912.914,138.137 h -18.195 c 2.996,6.613 7.316,16.843 9.379,23.129 1.879,-6.286 6.007,-16.621 8.816,-23.129 m 39.781,-24.762 -34.898,62.652 h -25.524 l -37.144,-62.652 h 26.457 l 7.129,13.258 h 29.832 l 7.687,-13.258 h 26.461"
         style="fill:#231f20;fill-opacity:1;fill-rule:evenodd;stroke:none"
         id="path481" /><path
         d="m 1108.46,113.379 -10.32,62.301 h -31.52 l -13.32,-28.254 c -1.69,-3.598 -3,-7.317 -4.31,-11.149 -1.13,3.953 -2.26,6.5 -4.13,10.571 l -12.76,28.832 h -31.33 l -10.875,-62.301 h 25.325 l 3.19,29.746 c 0.56,3.844 0.93,8.254 1.12,12.555 1.51,-4.992 3.56,-9.762 4.88,-12.555 l 13.51,-29.641 h 21.38 l 15.02,30.575 c 1.68,3.261 3.75,6.629 5.06,10.226 0.38,-4.297 0.75,-7.316 1.12,-10.578 l 3.38,-30.328 h 24.58"
         style="fill:#231f20;fill-opacity:1;fill-rule:evenodd;stroke:none"
         id="path483" /><path
         d="m 226.223,304.414 h 8.179 v -29.332 h 29.528 v 29.332 h 8.379 v -70.113 h -8.379 v 33.933 h -29.528 v -33.933 h -8.179 v 70.113"
         style="fill:#231f20;fill-opacity:1;fill-rule:nonzero;stroke:none"
         id="path485" /><path
         d="m 303.98,264.453 h 23.301 c -0.101,5.52 -0.82,8.891 -2.355,11.34 -1.738,2.762 -5.317,4.5 -9.199,4.5 -7.258,0 -11.336,-5.313 -11.747,-15.84 m 27.489,-19.828 3.058,-5.113 c -4.488,-4.078 -10.621,-6.328 -17.16,-6.328 -14.109,0 -22.586,10.218 -22.586,27.082 0,8.586 1.739,14.207 6.125,19.207 4.094,4.808 9.106,7.16 15.231,7.16 5.523,0 10.422,-1.949 13.801,-5.617 4.386,-4.5 5.621,-9.301 5.82,-21.465 v -1.129 H 303.98 v -1.231 c 0,-4.796 0.61,-8.48 2.348,-11.136 2.86,-4.391 7.559,-6.231 12.672,-6.231 4.906,0 8.887,1.528 12.469,4.801"
         style="fill:#231f20;fill-opacity:1;fill-rule:nonzero;stroke:none"
         id="path487" /><path
         d="m 358.336,306.969 8.281,1.629 c 1.328,-3.879 1.219,-9.606 1.219,-15.731 v -48.34 c 0,-3.992 0.621,-5.113 2.867,-5.113 0.305,0 1.02,0.203 1.02,0.203 l 1.632,-5.215 c -2.042,-0.918 -2.96,-1.117 -5.109,-1.117 -2.555,0 -4.492,0.707 -6.027,2.141 -1.844,1.64 -2.453,3.578 -2.453,7.262 v 50.179 c 0,7.66 -0.2,10.524 -1.43,14.102"
         style="fill:#231f20;fill-opacity:1;fill-rule:nonzero;stroke:none"
         id="path489" /><path
         d="m 393.484,284.586 7.77,1.84 c 1.019,-2.039 1.844,-5.008 1.844,-7.149 v -0.41 c 2.347,2.446 3.367,3.168 6.226,4.899 3.274,1.949 5.821,2.757 8.59,2.757 3.981,0 7.871,-2.039 10.113,-5.105 0.719,-1.023 1.129,-1.633 1.739,-3.371 4.914,5.211 11.14,8.476 16.351,8.476 7.559,0 12.778,-5.718 12.778,-13.789 v -38.425 h -8.176 v 37.605 c 0,4.902 -2.25,7.461 -6.543,7.461 -2.453,0 -5.11,-1.02 -7.461,-2.758 -1.527,-1.133 -3.27,-2.554 -5.11,-4.293 l -0.921,-0.82 v -37.195 h -8.067 v 36.175 c 0,4.387 -0.113,5.114 -1.429,6.543 -1.231,1.43 -2.872,2.036 -5.219,2.036 -3.883,0 -7.664,-1.938 -12.973,-6.739 v -38.015 h -7.668 v 37.91 c 0,7.058 -0.211,8.176 -1.844,12.367"
         style="fill:#231f20;fill-opacity:1;fill-rule:nonzero;stroke:none"
         id="path491" /><path
         d="m 483.91,307.172 7.977,1.527 c 0.918,-3.367 1.328,-6.636 1.328,-11.746 v -11.859 c 0,-1.946 -0.102,-4.293 -0.309,-6.946 1.949,1.84 2.856,2.555 5.106,3.981 4.293,2.859 7.871,4.094 11.859,4.094 6.129,0 11.551,-3.371 13.082,-8.075 0.61,-2.043 0.82,-3.675 0.82,-7.355 v -36.492 h -7.871 v 35.164 c 0,3.777 -0.621,6.023 -1.937,7.558 -1.231,1.231 -3.383,2.047 -5.934,2.047 -4.906,0 -10.429,-3.172 -14.816,-8.59 v -36.179 h -7.973 v 62.75 c 0,4.398 -0.308,6.543 -1.332,10.121"
         style="fill:#231f20;fill-opacity:1;fill-rule:nonzero;stroke:none"
         id="path493" /><path
         d="m 569.746,279.785 c -4.496,0 -8.59,-2.25 -10.422,-5.523 -1.636,-3.168 -2.453,-7.258 -2.453,-13.285 0,-7.153 1.227,-13.481 3.168,-16.661 1.84,-3.062 5.93,-5.101 10.316,-5.101 5.325,0 9.301,2.758 11.04,7.66 1.125,3.168 1.535,6.031 1.535,11.039 0,7.149 -0.711,11.949 -2.356,15.328 -2.136,4.492 -6.636,6.543 -10.828,6.543 m 0.102,6.539 c 8.48,0 14,-3.89 17.48,-8.89 3.16,-4.602 4.699,-10.625 4.699,-18.907 0,-9.914 -2.347,-16.156 -7.968,-21.05 -3.993,-3.473 -8.18,-4.914 -13.903,-4.914 -13.59,0 -21.968,10.332 -21.968,27.089 0,16.555 8.273,26.672 21.66,26.672"
         style="fill:#231f20;fill-opacity:1;fill-rule:nonzero;stroke:none"
         id="path495" /><path
         d="m 615.625,306.969 8.281,1.629 c 1.321,-3.879 1.223,-9.606 1.223,-15.731 v -48.34 c 0,-3.992 0.617,-5.113 2.863,-5.113 0.305,0 1.024,0.203 1.024,0.203 l 1.629,-5.215 c -2.04,-0.918 -2.957,-1.117 -5.11,-1.117 -2.551,0 -4.488,0.707 -6.027,2.141 -1.84,1.64 -2.453,3.578 -2.453,7.262 v 50.179 c 0,7.66 -0.2,10.524 -1.43,14.102"
         style="fill:#231f20;fill-opacity:1;fill-rule:nonzero;stroke:none"
         id="path497" /><path
         d="m 674.379,285.297 -2.449,-6.227 h -10.731 v -32.711 c 0,-5.617 1.531,-7.558 6.539,-7.558 2.25,0 3.684,0.308 5.114,1.019 l 1.117,-5.097 c -2.547,-1.344 -5.41,-2.051 -8.989,-2.051 -2.66,0 -4.699,0.508 -6.64,1.43 -3.578,1.738 -4.906,5.007 -4.906,10.117 v 34.851 h -6.641 v 6.227 h 6.641 v 0.621 c 0,2.555 0.199,5.41 0.707,10.621 l 0.113,1.332 8.266,1.836 c 0,0 -1.02,-7.656 -1.02,-14.41 h 12.879"
         style="fill:#231f20;fill-opacity:1;fill-rule:nonzero;stroke:none"
         id="path499" /><path
         d="m 692.461,285.094 h 33.93 v -6.539 l -26.469,-38.121 h 28.109 l -3.777,-6.125 H 690.32 v 6.125 l 27.692,38.32 h -25.551 v 6.34"
         style="fill:#231f20;fill-opacity:1;fill-rule:nonzero;stroke:none"
         id="path501" /><path
         d="m 837.668,299.609 -4.504,-5.418 c -4.187,3.071 -8.168,4.399 -13.277,4.399 -8.078,0 -13.903,-4.192 -17.27,-12.063 -2.051,-4.695 -2.972,-10.316 -2.972,-18.597 0,-6.746 0.609,-10.735 2.25,-14.821 3.578,-8.789 10.839,-12.879 18.812,-12.879 5.211,0 9.191,1.333 13.688,4.5 l 4.5,-5.828 c -5.629,-3.683 -12.567,-5.722 -19.52,-5.722 -17.07,0 -28.816,14.722 -28.816,35.98 0,20.84 12.468,36.172 29.425,36.172 6.739,0 12.883,-2.039 17.684,-5.723"
         style="fill:#231f20;fill-opacity:1;fill-rule:nonzero;stroke:none"
         id="path503" /><path
         d="m 864.641,264.453 h 23.297 c -0.102,5.52 -0.821,8.891 -2.352,11.34 -1.738,2.762 -5.309,4.5 -9.199,4.5 -7.25,0 -11.336,-5.313 -11.746,-15.84 m 27.488,-19.828 3.059,-5.113 c -4.489,-4.078 -10.618,-6.328 -17.161,-6.328 -14.109,0 -22.589,10.218 -22.589,27.082 0,8.586 1.742,14.207 6.128,19.207 4.094,4.808 9.102,7.16 15.231,7.16 5.523,0 10.43,-1.949 13.801,-5.617 4.39,-4.5 5.617,-9.301 5.82,-21.465 v -1.129 h -31.777 v -1.231 c 0,-4.796 0.609,-8.48 2.347,-11.136 2.86,-4.391 7.559,-6.231 12.668,-6.231 4.914,0 8.895,1.528 12.473,4.801"
         style="fill:#231f20;fill-opacity:1;fill-rule:nonzero;stroke:none"
         id="path505" /><path
         d="m 918.59,284.277 7.765,2.149 c 1.333,-2.867 1.844,-5.008 1.844,-7.969 5.309,5.313 10.617,7.871 16.039,7.871 5.52,0 10.418,-2.969 12.473,-7.469 0.816,-1.843 1.215,-3.879 1.215,-5.918 v -38.632 h -8.067 v 34.441 c 0,5.41 -0.304,6.836 -1.839,8.477 -1.125,1.332 -3.274,2.152 -5.622,2.152 -4.093,0 -10.421,-3.281 -14.101,-7.16 v -37.91 h -7.77 v 37.91 c 0,7.051 -0.199,8.183 -1.937,12.058"
         style="fill:#231f20;fill-opacity:1;fill-rule:nonzero;stroke:none"
         id="path507" /><path
         d="m 1007.08,285.297 -2.45,-6.227 h -10.739 v -32.711 c 0,-5.617 1.539,-7.558 6.549,-7.558 2.24,0 3.68,0.308 5.11,1.019 l 1.12,-5.097 c -2.55,-1.344 -5.42,-2.051 -8.99,-2.051 -2.66,0 -4.7,0.508 -6.641,1.43 -3.578,1.738 -4.91,5.007 -4.91,10.117 v 34.851 h -6.637 v 6.227 h 6.637 v 0.621 c 0,2.555 0.199,5.41 0.711,10.621 l 0.109,1.332 8.27,1.836 c 0,0 -1.02,-7.656 -1.02,-14.41 h 12.881"
         style="fill:#231f20;fill-opacity:1;fill-rule:nonzero;stroke:none"
         id="path509" /><path
         d="m 1026.89,284.379 7.98,2.148 c 1.22,-2.66 1.74,-4.187 1.74,-7.566 v -0.707 c 3.68,5.207 9.1,8.476 14.31,8.476 1.33,0 2.76,-0.507 2.76,-0.507 l -3.27,-8.696 c -1.03,0.317 -1.33,0.414 -2.26,0.414 -3.06,0 -6.12,-1.332 -8.47,-3.683 -2.37,-2.348 -2.98,-3.875 -2.98,-8.067 v -31.89 h -7.96 v 38.84 c 0,5.82 -0.41,7.968 -1.85,11.238"
         style="fill:#231f20;fill-opacity:1;fill-rule:nonzero;stroke:none"
         id="path511" /><path
         d="m 1076.05,264.453 h 23.3 c -0.1,5.52 -0.82,8.891 -2.35,11.34 -1.74,2.762 -5.31,4.5 -9.2,4.5 -7.25,0 -11.34,-5.313 -11.75,-15.84 m 27.49,-19.828 3.06,-5.113 c -4.49,-4.078 -10.62,-6.328 -17.16,-6.328 -14.11,0 -22.59,10.218 -22.59,27.082 0,8.586 1.74,14.207 6.13,19.207 4.09,4.808 9.1,7.16 15.23,7.16 5.52,0 10.43,-1.949 13.8,-5.617 4.39,-4.5 5.62,-9.301 5.82,-21.465 v -1.129 h -31.78 v -1.231 c 0,-4.796 0.61,-8.48 2.35,-11.136 2.86,-4.391 7.56,-6.231 12.67,-6.231 4.91,0 8.89,1.528 12.47,4.801"
         style="fill:#231f20;fill-opacity:1;fill-rule:nonzero;stroke:none"
         id="path513" /></g></g></svg>
