<?xml version="1.0" encoding="UTF-8" standalone="no"?>
<svg
   xmlns:dc="http://purl.org/dc/elements/1.1/"
   xmlns:cc="http://creativecommons.org/ns#"
   xmlns:rdf="http://www.w3.org/1999/02/22-rdf-syntax-ns#"
   xmlns:svg="http://www.w3.org/2000/svg"
   xmlns="http://www.w3.org/2000/svg"
   xmlns:sodipodi="http://sodipodi.sourceforge.net/DTD/sodipodi-0.dtd"
   xmlns:inkscape="http://www.inkscape.org/namespaces/inkscape"
   version="1.1"
   id="svg94"
   xml:space="preserve"
   width="896.89246"
   height="173.25746"
   viewBox="0 0 896.89243 173.25746"
   sodipodi:docname="UFZ_long_en.svg"
   inkscape:version="1.0.2 (e86c870879, 2021-01-15)"><metadata
     id="metadata100"><rdf:RDF><cc:Work
         rdf:about=""><dc:format>image/svg+xml</dc:format><dc:type
           rdf:resource="http://purl.org/dc/dcmitype/StillImage" /><dc:title></dc:title></cc:Work></rdf:RDF></metadata><defs
     id="defs98"><clipPath
       clipPathUnits="userSpaceOnUse"
       id="clipPath142"><path
         d="m 1706.79,1801.97 c -209.23,0 -406.52,-91.82 -542.23,-252.08 v -99.29 l 3.8,5.57 c 121.44,178.83 322.73,285.59 538.43,285.59 358.72,0 650.56,-291.84 650.56,-650.56 0,-103.309 -23.54,-202.091 -69.95,-293.571 -43.44,-85.668 -106.7,-162.008 -183,-221.07 v -74.02 l 2.8,1.922 c 194.33,133.019 310.36,352.371 310.36,586.739 0,391.93 -318.85,710.77 -710.77,710.77 z"
         id="path140" /></clipPath><linearGradient
       x1="0"
       y1="0"
       x2="1"
       y2="0"
       gradientUnits="userSpaceOnUse"
       gradientTransform="matrix(-762.494,769.598,769.598,762.494,2280.24,923.17)"
       spreadMethod="pad"
       id="linearGradient148"><stop
         style="stop-opacity:1;stop-color:#75b534"
         offset="0"
         id="stop144" /><stop
         style="stop-opacity:1;stop-color:#55ade0"
         offset="1"
         id="stop146" /></linearGradient></defs><sodipodi:namedview
     pagecolor="#ffffff"
     bordercolor="#666666"
     borderopacity="1"
     objecttolerance="10"
     gridtolerance="10"
     guidetolerance="10"
     inkscape:pageopacity="0"
     inkscape:pageshadow="2"
     inkscape:window-width="1916"
     inkscape:window-height="1035"
     id="namedview96"
     showgrid="false"
     inkscape:pagecheckerboard="true"
     fit-margin-top="0"
     fit-margin-left="0"
     fit-margin-right="0"
     fit-margin-bottom="0"
     inkscape:zoom="1.1753138"
     inkscape:cx="448.4259"
     inkscape:cy="81.575991"
     inkscape:window-x="3840"
     inkscape:window-y="22"
     inkscape:window-maximized="1"
     inkscape:current-layer="g106" /><g
     id="g102"
     inkscape:groupmode="layer"
     inkscape:label="ink_ext_XXXXXX"
     transform="matrix(1.3333333,0,0,-1.3333333,-99.087464,240.26266)"><g
       id="g104"
       transform="scale(0.1)"><g
         id="g106"
         transform="scale(10)"><g
           aria-label="Centre for Environmental Research"
           transform="matrix(1,0,0,-1,258.567,76.3852)"
           id="text110"
           style="font-variant:normal;font-weight:normal;font-size:35px;font-family:'Corporate S';-inkscape-font-specification:CorporateS-Regular;writing-mode:lr-tb;fill:#2b5fac;fill-opacity:1;fill-rule:nonzero;stroke:none"><path
             d="m 19.145,-16.87 c -0.595,-4.375 -3.395,-6.895 -7.735,-6.895 -5.845,0 -9.625,4.795 -9.625,12.18 0,7.35 3.78,12.005 9.73,12.005 4.69,0 7.595,-3.01 8.015,-8.33 h -2.485 c -0.385,3.92 -2.38,6.02 -5.635,6.02 -4.235,0 -6.825,-3.71 -6.825,-9.765 0,-6.02 2.625,-9.8 6.79,-9.8 2.87,0 4.655,1.505 5.32,4.585 z"
             id="path152" /><path
             d="m 36.435,-7.875 c 0.035,-0.315 0.035,-0.595 0.035,-0.7 0,-5.145 -2.625,-8.47 -6.72,-8.47 -4.34,0 -7.14,3.535 -7.14,8.925 0,5.215 2.835,8.54 7.28,8.54 3.045,0 5.145,-1.47 6.16,-4.34 L 33.775,-4.2 c -0.945,1.82 -2.03,2.52 -3.85,2.52 -3.01,0 -4.69,-2.17 -4.795,-6.195 z M 25.2,-9.8 c 0.49,-3.395 2.03,-5.18 4.445,-5.18 2.485,0 3.99,1.82 4.27,5.18 z"
             id="path154" /><path
             d="m 40.179998,-16.59 c 0.385,1.54 0.385,1.68 0.385,5.635 V 0 h 2.45 v -9.275 c 0,-1.575 0.245,-2.66 0.735,-3.535 0.77,-1.295 2.135,-2.065 3.64,-2.065 1.365,0 2.345,0.56 2.87,1.575 0.385,0.805 0.455,1.4 0.455,3.92 V 0 h 2.45 v -9.52 c 0,-3.29 -0.07,-3.745 -0.525,-4.83 -0.735,-1.68 -2.485,-2.695 -4.76,-2.695 -2.205,0 -3.885,0.945 -5.005,2.87 0,-1.05 -0.105,-1.715 -0.35,-2.415 z"
             id="path156" /><path
             d="m 61.635001,-16.59 0.07,-4.795 h -2.38 l -0.105,4.795 h -2.555 v 1.995 h 2.485 l -0.21,8.33 -0.035,1.295 c -0.035,0.525 -0.035,1.085 -0.035,1.4 0,1.19 0.105,1.785 0.42,2.345 0.56,1.015 1.785,1.575 3.43,1.575 1.015,0 1.82,-0.14 2.94,-0.56 v -2.17 c -0.735,0.385 -1.645,0.595 -2.38,0.595 -0.805,0 -1.4,-0.28 -1.61,-0.77 -0.21,-0.42 -0.245,-0.84 -0.245,-1.995 v -1.645 l 0.175,-8.4 h 3.955 v -1.995 z"
             id="path158" /><path
             d="m 68.985003,-16.59 c 0.245,1.61 0.28,1.925 0.28,5.705 V 0 h 2.485 v -7.42 c 0,-2.205 0.21,-3.605 0.735,-4.76 0.735,-1.61 1.89,-2.555 3.185,-2.555 0.63,0 1.085,0.14 2.205,0.665 v -2.45 c -0.7,-0.35 -1.365,-0.525 -1.995,-0.525 -1.785,0 -3.115,1.26 -4.27,4.025 0.035,-0.455 0.035,-0.805 0.035,-1.015 0,-0.84 -0.105,-1.715 -0.315,-2.555 z"
             id="path160" /><path
             d="m 93.426588,-7.875 c 0.035,-0.315 0.035,-0.595 0.035,-0.7 0,-5.145 -2.625,-8.47 -6.72,-8.47 -4.34,0 -7.14,3.535 -7.14,8.925 0,5.215 2.835,8.54 7.28,8.54 3.045,0 5.145,-1.47 6.16,-4.34 l -2.275,-0.28 c -0.945,1.82 -2.03,2.52 -3.85,2.52 -3.01,0 -4.69,-2.17 -4.795,-6.195 z m -11.235,-1.925 c 0.49,-3.395 2.03,-5.18 4.445,-5.18 2.485,0 3.99,1.82 4.27,5.18 z"
             id="path162" /><path
             d="m 109.17659,-16.59 v -1.12 c 0,-1.26 0.07,-2.03 0.245,-2.52 0.28,-0.945 0.98,-1.435 1.995,-1.435 0.735,0 1.435,0.175 2.31,0.63 v -2.275 c -0.98,-0.35 -1.785,-0.525 -2.625,-0.525 -1.61,0 -3.01,0.7 -3.71,1.925 -0.56,0.945 -0.7,1.785 -0.7,4.27 v 1.05 h -2.345 v 1.995 h 2.345 V 0 h 2.59 v -14.595 h 4.025 v -1.995 z"
             id="path164" /><path
             d="m 121.66617,-17.045 c -4.235,0 -7.245,3.605 -7.245,8.61 0,5.285 2.94,8.855 7.245,8.855 4.27,0 7.245,-3.605 7.245,-8.715 0,-5.18 -2.975,-8.75 -7.245,-8.75 z m 0,2.1 c 2.835,0 4.725,2.66 4.725,6.615 0,3.99 -1.89,6.65 -4.725,6.65 -2.87,0 -4.725,-2.66 -4.725,-6.72 0,-3.885 1.925,-6.545 4.725,-6.545 z"
             id="path166" /><path
             d="m 132.79488,-16.59 c 0.245,1.61 0.28,1.925 0.28,5.705 V 0 h 2.485 v -7.42 c 0,-2.205 0.21,-3.605 0.735,-4.76 0.735,-1.61 1.89,-2.555 3.185,-2.555 0.63,0 1.085,0.14 2.205,0.665 v -2.45 c -0.7,-0.35 -1.365,-0.525 -1.995,-0.525 -1.785,0 -3.115,1.26 -4.27,4.025 0.035,-0.455 0.035,-0.805 0.035,-1.015 0,-0.84 -0.105,-1.715 -0.315,-2.555 z"
             id="path168" /><path
             d="m 156.31487,-13.23 v -7.84 h 10.185 v -2.275 h -12.81 V 0 h 13.055 v -2.275 h -10.43 v -8.68 h 9.45 v -2.275 z"
             id="path170" /><path
             d="m 170.38488,-16.59 c 0.385,1.54 0.385,1.68 0.385,5.635 V 0 h 2.45 v -9.275 c 0,-1.575 0.245,-2.66 0.735,-3.535 0.77,-1.295 2.135,-2.065 3.64,-2.065 1.365,0 2.345,0.56 2.87,1.575 0.385,0.805 0.455,1.4 0.455,3.92 V 0 h 2.45 v -9.52 c 0,-3.29 -0.07,-3.745 -0.525,-4.83 -0.735,-1.68 -2.485,-2.695 -4.76,-2.695 -2.205,0 -3.885,0.945 -5.005,2.87 0,-1.05 -0.105,-1.715 -0.35,-2.415 z"
             id="path172" /><path
             d="m 186.24052,-16.59 5.88,16.8 h 2.59 l 5.88,-16.8 h -2.52 l -4.62,13.93 -4.655,-13.93 z"
             id="path174" /><path
             d="M 203.52949,-16.59 V 0 h 2.59 v -16.59 z m 1.33,-7.07 c -1.05,0 -1.82,0.77 -1.82,1.82 0,1.015 0.77,1.75 1.785,1.75 1.05,0 1.785,-0.735 1.785,-1.75 0,-1.05 -0.735,-1.82 -1.75,-1.82 z"
             id="path176" /><path
             d="m 211.01885,-16.59 c 0.245,1.61 0.28,1.925 0.28,5.705 V 0 h 2.485 v -7.42 c 0,-2.205 0.21,-3.605 0.735,-4.76 0.735,-1.61 1.89,-2.555 3.185,-2.555 0.63,0 1.085,0.14 2.205,0.665 v -2.45 c -0.7,-0.35 -1.365,-0.525 -1.995,-0.525 -1.785,0 -3.115,1.26 -4.27,4.025 0.035,-0.455 0.035,-0.805 0.035,-1.015 0,-0.84 -0.105,-1.715 -0.315,-2.555 z"
             id="path178" /><path
             d="m 228.86384,-17.045 c -4.235,0 -7.245,3.605 -7.245,8.61 0,5.285 2.94,8.855 7.245,8.855 4.27,0 7.245,-3.605 7.245,-8.715 0,-5.18 -2.975,-8.75 -7.245,-8.75 z m 0,2.1 c 2.835,0 4.725,2.66 4.725,6.615 0,3.99 -1.89,6.65 -4.725,6.65 -2.87,0 -4.725,-2.66 -4.725,-6.72 0,-3.885 1.925,-6.545 4.725,-6.545 z"
             id="path180" /><path
             d="m 239.81884,-16.59 c 0.385,1.54 0.385,1.68 0.385,5.635 V 0 h 2.45 v -9.275 c 0,-1.575 0.245,-2.66 0.735,-3.535 0.77,-1.295 2.135,-2.065 3.64,-2.065 1.365,0 2.345,0.56 2.87,1.575 0.385,0.805 0.455,1.4 0.455,3.92 V 0 h 2.45 v -9.52 c 0,-3.29 -0.07,-3.745 -0.525,-4.83 -0.735,-1.68 -2.485,-2.695 -4.76,-2.695 -2.205,0 -3.885,0.945 -5.005,2.87 0,-1.05 -0.105,-1.715 -0.35,-2.415 z"
             id="path182" /><path
             d="m 257.49384,-16.59 c 0.385,1.4 0.42,1.715 0.42,5.145 V 0 h 2.45 v -9.66 c 0,-1.505 0.175,-2.485 0.63,-3.325 0.63,-1.19 1.925,-1.89 3.395,-1.89 1.295,0 2.31,0.56 2.8,1.505 0.35,0.63 0.385,1.05 0.385,3.605 V 0 h 2.45 v -9.8 c 0,-1.505 0.175,-2.45 0.63,-3.185 0.665,-1.19 1.855,-1.855 3.325,-1.855 1.295,0 2.205,0.455 2.73,1.26 0.42,0.7 0.49,1.26 0.49,3.43 V 0 h 2.45 v -10.15 c 0,-3.15 -0.07,-3.78 -0.63,-4.76 -0.77,-1.365 -2.31,-2.135 -4.27,-2.135 -2.345,0 -3.99,0.945 -5.11,2.905 -0.84,-1.995 -2.275,-2.905 -4.585,-2.905 -2.275,0 -3.78,0.875 -4.83,2.73 0,-0.875 -0.105,-1.68 -0.315,-2.275 z"
             id="path184" /><path
             d="m 297.49885,-7.875 c 0.035,-0.315 0.035,-0.595 0.035,-0.7 0,-5.145 -2.625,-8.47 -6.72,-8.47 -4.34,0 -7.14,3.535 -7.14,8.925 0,5.215 2.835,8.54 7.28,8.54 3.045,0 5.145,-1.47 6.16,-4.34 l -2.275,-0.28 c -0.945,1.82 -2.03,2.52 -3.85,2.52 -3.01,0 -4.69,-2.17 -4.795,-6.195 z m -11.235,-1.925 c 0.49,-3.395 2.03,-5.18 4.445,-5.18 2.485,0 3.99,1.82 4.27,5.18 z"
             id="path186" /><path
             d="m 301.24383,-16.59 c 0.385,1.54 0.385,1.68 0.385,5.635 V 0 h 2.45 v -9.275 c 0,-1.575 0.245,-2.66 0.735,-3.535 0.77,-1.295 2.135,-2.065 3.64,-2.065 1.365,0 2.345,0.56 2.87,1.575 0.385,0.805 0.455,1.4 0.455,3.92 V 0 h 2.45 v -9.52 c 0,-3.29 -0.07,-3.745 -0.525,-4.83 -0.735,-1.68 -2.485,-2.695 -4.76,-2.695 -2.205,0 -3.885,0.945 -5.005,2.87 0,-1.05 -0.105,-1.715 -0.35,-2.415 z"
             id="path188" /><path
             d="m 322.69884,-16.59 0.07,-4.795 h -2.38 l -0.105,4.795 h -2.555 v 1.995 h 2.485 l -0.21,8.33 -0.035,1.295 c -0.035,0.525 -0.035,1.085 -0.035,1.4 0,1.19 0.105,1.785 0.42,2.345 0.56,1.015 1.785,1.575 3.43,1.575 1.015,0 1.82,-0.14 2.94,-0.56 v -2.17 c -0.735,0.385 -1.645,0.595 -2.38,0.595 -0.805,0 -1.4,-0.28 -1.61,-0.77 -0.21,-0.42 -0.245,-0.84 -0.245,-1.995 v -1.645 l 0.175,-8.4 h 3.955 v -1.995 z"
             id="path190" /><path
             d="m 332.23017,-12.25 c 0.35,-1.855 1.54,-2.695 3.675,-2.695 2.45,0 3.395,0.945 3.395,3.43 v 0.7 c -3.08,0.525 -4.62,0.875 -6.23,1.47 -2.52,0.945 -3.85,2.66 -3.85,4.97 0,2.905 2.1,4.795 5.355,4.795 2.275,0 3.885,-0.875 4.865,-2.66 0.105,1.085 0.14,1.47 0.385,2.24 h 2.345 c -0.385,-1.155 -0.455,-1.68 -0.455,-4.375 v -6.23 c 0,-2.065 -0.07,-2.87 -0.385,-3.71 -0.63,-1.715 -2.625,-2.73 -5.32,-2.73 -3.675,0 -5.845,1.68 -6.195,4.795 z m 7.07,4.9 c 0,1.715 -0.21,2.835 -0.63,3.64 -0.7,1.295 -2.1,2.065 -3.71,2.065 -1.925,0 -3.22,-1.19 -3.22,-2.905 0,-2.275 1.96,-3.465 7.56,-4.445 z"
             id="path192" /><path
             d="M 346.82517,-23.45 V 0 h 2.59 v -23.45 z"
             id="path194" /><path
             d="M 363.76458,-23.345 V 0 h 2.625 v -9.975 h 4.06 l 5.88,9.975 h 3.15 l -6.125,-10.395 c 3.185,-1.155 4.795,-3.255 4.795,-6.335 0,-2.765 -1.435,-4.97 -3.78,-5.88 -1.54,-0.595 -2.87,-0.735 -6.475,-0.735 z m 2.625,11.095 v -8.82 h 1.575 c 3.325,0 4.13,0.07 5.215,0.56 1.4,0.595 2.205,1.96 2.205,3.745 0,1.995 -0.945,3.465 -2.625,4.06 -1.085,0.385 -1.89,0.455 -4.725,0.455 z"
             id="path196" /><path
             d="m 395.31089,-7.875 c 0.035,-0.315 0.035,-0.595 0.035,-0.7 0,-5.145 -2.625,-8.47 -6.72,-8.47 -4.34,0 -7.14,3.535 -7.14,8.925 0,5.215 2.835,8.54 7.28,8.54 3.045,0 5.145,-1.47 6.16,-4.34 l -2.275,-0.28 c -0.945,1.82 -2.03,2.52 -3.85,2.52 -3.01,0 -4.69,-2.17 -4.795,-6.195 z m -11.235,-1.925 c 0.49,-3.395 2.03,-5.18 4.445,-5.18 2.485,0 3.99,1.82 4.27,5.18 z"
             id="path198" /><path
             d="m 410.46587,-12.04 c -0.175,-3.22 -2.205,-5.005 -5.74,-5.005 -3.395,0 -5.705,1.89 -5.705,4.69 0,2.31 1.225,3.535 4.445,4.515 2.87,0.91 3.08,0.98 3.64,1.33 0.77,0.455 1.12,1.05 1.12,1.96 0,1.75 -1.365,2.905 -3.535,2.905 -2.38,0 -3.64,-1.155 -3.85,-3.5 h -2.38 c 0,3.57 2.24,5.565 6.265,5.565 3.71,0 6.02,-1.995 6.02,-5.18 0,-1.155 -0.315,-2.135 -0.945,-2.87 -0.7,-0.805 -1.715,-1.295 -4.445,-2.1 -3.15,-0.91 -3.85,-1.435 -3.85,-2.8 0,-1.47 1.295,-2.485 3.185,-2.485 2.065,0 3.15,0.945 3.395,2.975 z"
             id="path200" /><path
             d="m 427.65089,-7.875 c 0.035,-0.315 0.035,-0.595 0.035,-0.7 0,-5.145 -2.625,-8.47 -6.72,-8.47 -4.34,0 -7.14,3.535 -7.14,8.925 0,5.215 2.835,8.54 7.28,8.54 3.045,0 5.145,-1.47 6.16,-4.34 l -2.275,-0.28 c -0.945,1.82 -2.03,2.52 -3.85,2.52 -3.01,0 -4.69,-2.17 -4.795,-6.195 z m -11.235,-1.925 c 0.49,-3.395 2.03,-5.18 4.445,-5.18 2.485,0 3.99,1.82 4.27,5.18 z"
             id="path202" /><path
             d="m 433.88089,-12.25 c 0.35,-1.855 1.54,-2.695 3.675,-2.695 2.45,0 3.395,0.945 3.395,3.43 v 0.7 c -3.08,0.525 -4.62,0.875 -6.23,1.47 -2.52,0.945 -3.85,2.66 -3.85,4.97 0,2.905 2.1,4.795 5.355,4.795 2.275,0 3.885,-0.875 4.865,-2.66 0.105,1.085 0.14,1.47 0.385,2.24 h 2.345 c -0.385,-1.155 -0.455,-1.68 -0.455,-4.375 v -6.23 c 0,-2.065 -0.07,-2.87 -0.385,-3.71 -0.63,-1.715 -2.625,-2.73 -5.32,-2.73 -3.675,0 -5.845,1.68 -6.195,4.795 z m 7.07,4.9 c 0,1.715 -0.21,2.835 -0.63,3.64 -0.7,1.295 -2.1,2.065 -3.71,2.065 -1.925,0 -3.22,-1.19 -3.22,-2.905 0,-2.275 1.96,-3.465 7.56,-4.445 z"
             id="path204" /><path
             d="m 448.23087,-16.59 c 0.245,1.61 0.28,1.925 0.28,5.705 V 0 h 2.485 v -7.42 c 0,-2.205 0.21,-3.605 0.735,-4.76 0.735,-1.61 1.89,-2.555 3.185,-2.555 0.63,0 1.085,0.14 2.205,0.665 v -2.45 c -0.7,-0.35 -1.365,-0.525 -1.995,-0.525 -1.785,0 -3.115,1.26 -4.27,4.025 0.035,-0.455 0.035,-0.805 0.035,-1.015 0,-0.84 -0.105,-1.715 -0.315,-2.555 z"
             id="path206" /><path
             d="m 471.82266,-11.2 c -0.35,-3.78 -2.45,-5.845 -5.95,-5.845 -4.305,0 -7.035,3.395 -7.035,8.785 0,5.25 2.765,8.68 7.035,8.68 3.64,0 5.775,-2.135 6.09,-6.125 h -2.45 c -0.28,2.765 -1.435,4.025 -3.64,4.025 -2.835,0 -4.515,-2.485 -4.515,-6.615 0,-4.13 1.68,-6.65 4.445,-6.65 2.135,0 3.15,1.05 3.605,3.745 z"
             id="path208" /><path
             d="M 475.88798,-23.45 V 0 h 2.45 v -9.135 c 0,-1.61 0.21,-2.8 0.7,-3.675 0.735,-1.295 2.03,-2.065 3.535,-2.065 1.33,0 2.31,0.56 2.87,1.575 0.42,0.77 0.525,1.505 0.525,3.92 V 0 h 2.45 v -9.52 c 0,-3.29 -0.14,-4.235 -0.735,-5.25 -0.84,-1.4 -2.59,-2.275 -4.585,-2.275 -2.03,0 -3.535,0.77 -4.76,2.415 v -8.82 z"
             id="path210" /></g></g><path
         d="m 2740.3,1255.86 v 103.25 h 48.96 V 1104 h -48.96 v 102.9 h -87.43 V 1104 h -48.93 v 255.11 h 48.93 v -103.25 h 87.43"
         style="fill:#2b5fac;fill-opacity:1;fill-rule:nonzero;stroke:none"
         id="path112" /><path
         d="m 3004.94,1359.11 v -48.92 h -111.92 v -54.33 h 97.16 v -48.96 h -97.16 v -53.97 h 111.92 V 1104 h -136.75 c -2.16,0 -4.33,0.73 -5.77,2.51 l -15.82,15.83 c -1.78,1.43 -2.52,3.6 -2.52,5.77 v 206.92 c 0,2.14 0.74,4.31 2.52,5.74 l 15.82,15.82 c 1.44,1.47 3.61,2.52 5.77,2.52 h 136.75"
         style="fill:#2b5fac;fill-opacity:1;fill-rule:nonzero;stroke:none"
         id="path114" /><path
         d="m 3080.63,1104 c -2.17,0 -4.34,0.73 -5.77,2.51 l -15.83,15.83 c -1.81,1.43 -2.51,3.6 -2.51,5.77 v 231 h 48.92 v -206.18 h 106.51 V 1104 h -131.32"
         style="fill:#2b5fac;fill-opacity:1;fill-rule:nonzero;stroke:none"
         id="path116" /><path
         d="M 3474.72,1359.11 V 1104 h -48.94 v 141.05 l -39.93,-83.48 c -1.43,-2.87 -4.31,-4.68 -7.21,-4.68 h -28.78 c -3.25,0 -6.12,1.81 -7.55,4.68 l -39.94,83.48 V 1104 h -48.93 v 255.11 h 48.93 l 61.88,-129.53 61.53,129.53 h 48.94"
         style="fill:#2b5fac;fill-opacity:1;fill-rule:nonzero;stroke:none"
         id="path118" /><path
         d="m 3662.71,1255.86 v 103.25 h 48.96 V 1104 h -48.96 v 102.9 h -87.44 V 1104 h -48.93 v 255.11 h 48.93 v -103.25 h 87.44"
         style="fill:#2b5fac;fill-opacity:1;fill-rule:nonzero;stroke:none"
         id="path120" /><path
         d="m 3896.76,1176.69 v 109.38 c 0,2.16 -1.08,4.33 -2.52,5.77 l -15.47,15.83 c -1.82,1.43 -3.95,2.52 -6.12,2.52 h -43.9 c -2.17,0 -3.95,-1.09 -5.77,-2.52 l -15.47,-15.83 c -1.79,-1.44 -2.52,-3.61 -2.52,-5.77 v -109.38 c 0,-2.17 0.73,-3.95 2.52,-5.77 l 15.47,-15.47 c 1.82,-1.79 3.6,-2.52 5.77,-2.52 h 43.9 c 2.17,0 4.3,0.73 6.12,2.52 l 15.47,15.47 c 1.44,1.82 2.52,3.6 2.52,5.77 z m 11.51,170.21 25.55,-25.2 c 7.56,-7.56 11.87,-17.99 11.87,-28.78 v -122.7 c 0,-10.81 -4.31,-21.24 -11.87,-28.8 l -25.55,-25.56 c -7.56,-7.56 -17.99,-11.86 -28.8,-11.86 h -57.19 c -10.81,0 -21.59,3.95 -29.15,11.86 l -25.21,25.56 c -7.56,7.56 -11.86,17.99 -11.86,28.8 v 122.7 c 0,10.79 4.3,21.22 11.86,28.78 l 25.21,25.2 c 7.91,7.91 18.34,12.21 29.15,12.21 h 57.19 c 10.81,0 20.89,-4.66 28.8,-12.21"
         style="fill:#2b5fac;fill-opacity:1;fill-rule:nonzero;stroke:none"
         id="path122" /><path
         d="m 4013.11,1104 c -2.17,0 -4.34,0.73 -5.77,2.51 l -15.82,15.83 c -1.82,1.43 -2.52,3.6 -2.52,5.77 v 231 h 48.93 v -206.18 h 106.51 V 1104 h -131.33"
         style="fill:#2b5fac;fill-opacity:1;fill-rule:nonzero;stroke:none"
         id="path124" /><path
         d="m 4140.92,1310.19 v 48.92 h 184.24 v -48.92 H 4257.5 V 1104 h -48.92 v 206.19 h -67.66"
         style="fill:#2b5fac;fill-opacity:1;fill-rule:nonzero;stroke:none"
         id="path126" /><path
         d="m 4514.58,1356.59 15.83,-15.82 c 1.44,-1.43 2.52,-3.6 2.52,-5.74 v -12.6 l -107.24,-169.5 H 4531.5 V 1104 h -146.1 c -2.17,0 -4.33,0.73 -5.77,2.51 l -15.83,15.83 c -1.44,1.43 -2.52,3.6 -2.52,5.77 v 14.74 l 105.81,167.34 h -107.24 v 48.92 h 148.96 c 2.17,0 4.34,-1.05 5.77,-2.52"
         style="fill:#2b5fac;fill-opacity:1;fill-rule:nonzero;stroke:none"
         id="path128" /><path
         d="m 1049.55,933.48 v 425.59 h 115.01 V 918.371 c 0,-25.191 -10.91,-48.699 -28.8,-66.891 l -58.65,-59.718 C 1059.63,773.988 1035.28,763.91 1010.1,763.91 H 896.77 c -25.176,0 -49.512,10.078 -66.993,27.852 l -58.652,59.718 c -17.902,18.192 -27.969,41.7 -27.969,66.891 v 440.699 h 114.16 V 933.48 c 0,-5.039 1.688,-9.23 5.039,-13.441 l 36.942,-36.09 c 3.351,-4.187 8.391,-5.879 13.43,-5.879 h 81.433 c 5.02,0 10.06,1.692 13.42,5.879 l 36.93,36.09 c 3.37,4.211 5.04,8.402 5.04,13.441"
         style="fill:#2b5fac;fill-opacity:1;fill-rule:nonzero;stroke:none"
         id="path130" /><path
         d="m 1650.53,1359.07 v -114.16 h -271.14 v -126.75 h 236.72 V 1004 H 1379.39 V 763.91 h -114.16 v 538.93 c 0,5.03 1.67,10.07 5.87,13.42 l 36.94,36.93 c 3.35,3.38 8.39,5.88 13.43,5.88 h 329.06"
         style="fill:#2b5fac;fill-opacity:1;fill-rule:nonzero;stroke:none"
         id="path132" /><path
         d="m 2048.44,1358.8 c 5.05,0 9.9,-2 13.47,-5.59 l 36.91,-36.91 c 3.56,-3.56 5.58,-8.42 5.58,-13.46 v -29.13 L 1854.11,878.141 H 2104.4 V 763.91 h -344.15 c -5.04,0 -9.9,2.012 -13.46,5.57 l -36.92,36.918 c -3.56,3.582 -5.56,8.411 -5.56,13.461 v 35.11 l 246.5,389.611 h -227.59 v 114.22 h 325.22"
         style="fill:#2b5fac;fill-opacity:1;fill-rule:nonzero;stroke:none"
         id="path134" /><g
         id="g136"><g
           id="g138"
           clip-path="url(#clipPath142)"><path
             d="m 1706.79,1801.97 c -209.23,0 -406.52,-91.82 -542.23,-252.08 v -99.29 l 3.8,5.57 c 121.44,178.83 322.73,285.59 538.43,285.59 358.72,0 650.56,-291.84 650.56,-650.56 0,-103.309 -23.54,-202.091 -69.95,-293.571 -43.44,-85.668 -106.7,-162.008 -183,-221.07 v -74.02 l 2.8,1.922 c 194.33,133.019 310.36,352.371 310.36,586.739 0,391.93 -318.85,710.77 -710.77,710.77"
             style="fill:url(#linearGradient148);fill-opacity:1;fill-rule:nonzero;stroke:none"
             id="path150" /></g></g></g></g></svg>
